# xmcd CD database file
#
# Track frame offsets:
#	150
#	13750
#	31295
#	58832
#	75362
#
# Disc length: 1215 seconds
#
# Revision: 0
# Processed by: cddbd v1.5PL3 Copyright (c) Steve Scherf et al.
# Submitted via: CDex 1.51
#
DISCID=3204bd05
DTITLE=Destiny's Child - Bootylicious
DYEAR=1900
DGENRE=R&B
TTITLE0=Bootylicious(Radio Edit)
TTITLE1=Bootylicious(Rockwilder Remix)
TTITLE2=Bootylicious(Richard Vission's V-Quest)
TTITLE3=Bootylicious(M&J's Jelly Remix)
TTITLE4=Bootylicious(Big Boyz Remix)
EXTD=
EXTT0=
EXTT1=
EXTT2=
EXTT3=
EXTT4=
PLAYORDER=
